PathFileType	4	(x/y/z)	S09_BK_Cal_T01
DataRate	CameraRate	NumFrames	NumMarkers	Units	OrigDataRate	OrigDataStartFrame	OrigNumFrames
240	240	4	51	mm	240	1501	2400
Frame#	Time	Sternum			R.Acromium			L.Acromium			Top.Head			R.ASIS			L.ASIS			R.PSIS			L.PSIS			R.Great.Tro			L.Great.Tro			R.Iliac.Crest			L.Iliac.Crest			V.Sacral			R.Thigh.Upper.Post			R.Thigh.Lower.Ant			R.Thigh.Lower.Post			R.Thigh.Upper.Ant			R.Knee.Lat			R.Knee.Med			R.Shank.Upper.Post			R.Shank.Lower.Ant			R.Shank.Lower.Post			R.Shank.Upper.Ant			R.Ankle.Lat			R.Ankle.Med			R.Heel.Upper			R.Heel.Med			R.Heel.Lat			R.Toe.Lat			R.Toe.Med			R.Toe.Tip			L.Thigh.Upper.Post			L.Thigh.Lower.Ant			L.Thigh.Lower.Post			L.Thigh.Upper.Ant			L.Knee.Lat			L.Knee.Med			L.Shank.Upper.Post			L.Shank.Lower.Ant			L.Shank.Lower.Post			L.Shank.Upper.Ant			L.Ankle.Lat			L.Ankle.Med			L.Heel.Upper			L.Heel.Med			L.Heel.Lat			L.Toe.Lat			L.Toe.Med			L.Toe.Tip			Cervical.Spine			Back			
		X1	Y1	Z1	X2	Y2	Z2	X3	Y3	Z3	X4	Y4	Z4	X5	Y5	Z5	X6	Y6	Z6	X7	Y7	Z7	X8	Y8	Z8	X9	Y9	Z9	X10	Y10	Z10	X11	Y11	Z11	X12	Y12	Z12	X13	Y13	Z13	X14	Y14	Z14	X15	Y15	Z15	X16	Y16	Z16	X17	Y17	Z17	X18	Y18	Z18	X19	Y19	Z19	X20	Y20	Z20	X21	Y21	Z21	X22	Y22	Z22	X23	Y23	Z23	X24	Y24	Z24	X25	Y25	Z25	X26	Y26	Z26	X27	Y27	Z27	X28	Y28	Z28	X29	Y29	Z29	X30	Y30	Z30	X31	Y31	Z31	X32	Y32	Z32	X33	Y33	Z33	X34	Y34	Z34	X35	Y35	Z35	X36	Y36	Z36	X37	Y37	Z37	X38	Y38	Z38	X39	Y39	Z39	X40	Y40	Z40	X41	Y41	Z41	X42	Y42	Z42	X43	Y43	Z43	X44	Y44	Z44	X45	Y45	Z45	X46	Y46	Z46	X47	Y47	Z47	X48	Y48	Z48	X49	Y49	Z49	X50	Y50	Z50	X51	Y51	Z51	

1501	6.25	574.12	1096.7	291.84	469.81	1366.1	438.04	480.1	1363.3	122.97	535.52	1666.8	291.86	468.71	941.23	394.98	469.92	940.21	150.13	256.75	1004.6	316.42	263.66	1005.3	225.9	380.25	877.03	470.23	392.7	871.31	78.987	400.81	1036.7	434.84	394.88	1051	114.36	235.43	972.56	267.52	465.33	642.11	461.96	572.5	575.62	430.87	495.38	555.18	435.5	536.33	656.23	455.28	575.82	491.82	421.07	573.29	480.77	299.24	467.27	343.54	431.2	513.21	265.1	419.39	441.23	271.71	423.53	532.43	336.26	428.32	397.04	96.052	406.72	431.72	100.43	321.92	333.24	77.371	358.57	342.82	44.501	330.76	334.55	48.439	395.62	492.43	40.85	453.14	542.31	44.579	347.91	589.19	60.143	395.11	427.85	608.14	116.18	541.25	550.42	107.07	479.75	532.78	134.04	493.3	623.07	85.279	553.92	474.83	117.58	581.09	490.01	248.6	484.48	368.48	104.81	518.65	264.33	116.55	462.54	294.72	109.57	540.79	339.34	112.23	413.61	107.77	131.72	426.67	93.805	225.37	337.24	71.447	176.4	347.65	46.139	209.06	338.21	44.498	147.58	511.67	43.998	95.227	547.8	42.053	203.86	600.14	59.066	146.69	404.77	1423	289.55	315.24	1176.4	269.62
1502	6.2542	574.08	1096.6	291.84	469.77	1366	438.04	480.05	1363.3	122.97	535.46	1666.8	291.86	468.67	941.22	394.99	469.89	940.21	150.14	256.71	1004.6	316.43	263.62	1005.3	225.9	380.21	877.02	470.23	392.66	871.3	78.988	400.77	1036.7	434.85	394.84	1051	114.37	235.4	972.54	267.52	465.31	642.11	461.96	572.48	575.62	430.87	495.35	555.17	435.5	536.3	656.23	455.28	575.8	491.82	421.06	573.28	480.78	299.24	467.26	343.54	431.2	513.2	265.1	419.39	441.22	271.71	423.53	532.42	336.26	428.32	397.04	96.051	406.72	431.71	100.43	321.92	333.24	77.369	358.57	342.81	44.498	330.76	334.54	48.436	395.62	492.43	40.853	453.14	542.31	44.579	347.91	589.19	60.146	395.11	427.81	608.13	116.19	541.22	550.42	107.07	479.73	532.78	134.04	493.27	623.07	85.277	553.9	474.83	117.58	581.07	490.01	248.59	484.46	368.49	104.81	518.62	264.34	116.54	462.51	294.72	109.57	540.77	339.34	112.21	413.6	107.77	131.73	426.66	93.804	225.36	337.23	71.443	176.4	347.65	46.136	209.06	338.21	44.492	147.58	511.67	43.997	95.226	547.79	42.059	203.86	600.14	59.074	146.69	404.73	1423	289.56	315.2	1176.4	269.63
1503	6.2583	574.03	1096.6	291.84	469.73	1366	438.05	480.01	1363.3	122.96	535.41	1666.8	291.85	468.63	941.21	395	469.85	940.2	150.14	256.67	1004.6	316.43	263.58	1005.3	225.9	380.17	877	470.23	392.62	871.29	78.99	400.73	1036.7	434.86	394.8	1051	114.38	235.36	972.52	267.52	465.28	642.1	461.96	572.46	575.62	430.87	495.32	555.16	435.5	536.27	656.23	455.29	575.79	491.82	421.06	573.27	480.78	299.24	467.25	343.54	431.2	513.19	265.1	419.39	441.21	271.7	423.53	532.41	336.26	428.32	397.04	96.05	406.72	431.71	100.43	321.91	333.24	77.366	358.57	342.81	44.495	330.76	334.54	48.434	395.62	492.43	40.856	453.13	542.3	44.579	347.91	589.19	60.149	395.11	427.78	608.12	116.19	541.2	550.42	107.06	479.71	532.78	134.03	493.24	623.07	85.275	553.87	474.83	117.57	581.06	490.02	248.58	484.43	368.49	104.81	518.6	264.34	116.54	462.48	294.73	109.56	540.76	339.34	112.2	413.58	107.77	131.73	426.66	93.803	225.36	337.23	71.438	176.4	347.64	46.132	209.06	338.21	44.485	147.58	511.66	43.997	95.226	547.79	42.064	203.86	600.14	59.083	146.69	404.7	1423	289.57	315.16	1176.4	269.64
1504	6.2625	573.99	1096.6	291.84	469.7	1366	438.06	479.96	1363.3	122.96	535.35	1666.8	291.84	468.58	941.19	395.01	469.82	940.2	150.15	256.63	1004.6	316.43	263.54	1005.3	225.91	380.13	876.99	470.24	392.58	871.28	78.992	400.69	1036.7	434.86	394.77	1051	114.38	235.33	972.5	267.52	465.26	642.1	461.96	572.44	575.62	430.87	495.29	555.15	435.5	536.24	656.23	455.29	575.77	491.83	421.06	573.25	480.78	299.24	467.24	343.54	431.2	513.18	265.1	419.39	441.2	271.7	423.53	532.4	336.27	428.31	397.03	96.049	406.72	431.7	100.43	321.91	333.24	77.364	358.57	342.81	44.492	330.76	334.54	48.43	395.62	492.43	40.859	453.13	542.3	44.58	347.91	589.19	60.152	395.1	427.76	608.11	116.19	541.18	550.41	107.06	479.69	532.77	134.03	493.21	623.07	85.272	553.86	474.83	117.57	581.05	490.02	248.57	484.41	368.5	104.81	518.58	264.34	116.53	462.45	294.73	109.56	540.74	339.34	112.18	413.57	107.78	131.73	426.66	93.802	225.36	337.23	71.434	176.39	347.64	46.128	209.06	338.2	44.479	147.58	511.66	43.997	95.225	547.79	42.07	203.86	600.13	59.091	146.69	404.66	1423	289.57	315.11	1176.4	269.65
